<svg xmlns="http://www.w3.org/2000/svg" width="190" height="64" viewBox="0 0 190 64"><g transform="translate(-298 -10618)"><rect width="190" height="64" rx="8" transform="translate(298 10618)" fill="#fff"/><text transform="translate(380 10669)" fill="#5c5854" font-size="24" font-family="mplus-1p-bold, 'M\+ \31 p'" font-weight="700" letter-spacing="0.1em"><tspan x="0" y="0">LOGO</tspan></text><text transform="translate(366 10643)" fill="#5c5854" font-size="13" font-family="mplus-1p-bold, 'M\+ \31 p'" font-weight="700" letter-spacing="0.1em"><tspan x="0" y="0">徳之島観光</tspan><tspan y="0">サイト</tspan></text><g transform="translate(0 1)"><circle cx="28" cy="28" r="28" transform="translate(306 10622)" fill="#fff"/><g transform="matrix(0.998, -0.07, 0.07, 0.998, 316.309, 10637.136)"><path d="M6.572,0A6.572,6.572,0,1,1,0,6.572,6.572,6.572,0,0,1,6.572,0Z" transform="translate(0 0)" fill="#cb9968"/></g><g transform="translate(332.038 10634.918)"><path d="M-.3,0H1.1A10.524,10.524,0,0,1,2.11,3.675,21.628,21.628,0,0,1,1.8,8.411H-1A12.791,12.791,0,0,0,.4,3.635,9.572,9.572,0,0,0-.3,0Z" transform="translate(3.902 3.204)" fill="#ada180"/><path d="M1.136.336A12.684,12.684,0,0,1,3.985,0S3.692,2.265,2.147,2.265A5.84,5.84,0,0,0-1.019,3.727S-.014.67,1.136.336Z" transform="translate(1.019 3.345)" fill="#93ad80"/><path d="M1.317.138a2.551,2.551,0,0,1,1.639,0s-.53,2.112-1.305,2.112S0,3.561,0,3.561.5.449,1.317.138Z" transform="translate(3.458 1.293) rotate(60)" fill="#93ad80"/><path d="M2.272,3.314a4.248,4.248,0,0,0,2.333-.058s-.74-1.877-1.824-1.877S0,0,0,0,.727,2.684,2.272,3.314Z" transform="matrix(-0.719, 0.695, -0.695, -0.719, 8.91, 2.491)" fill="#93ad80"/><path d="M2.6,2.93a12.8,12.8,0,0,0,2.664.291s-.7-1.957-1.719-1.957A13.334,13.334,0,0,1,0,0S1.524,2.642,2.6,2.93Z" transform="matrix(-0.998, 0.07, -0.07, -0.998, 9.688, 6.092)" fill="#93ad80"/></g><path d="M12.328,0A12.313,12.313,0,0,1,24.657,12.593c0,3.625-.119-1.858-12.328-1.858S0,16.161,0,12.593A12.313,12.313,0,0,1,12.328,0Z" transform="translate(319.065 10643.828)" fill="#ada180"/><path d="M13.419,0A13.419,13.419,0,0,1,26.838,13.419c0,3.735-.13-3.2-13.419-3.2S0,17.095,0,13.419A13.419,13.419,0,0,1,13.419,0Z" transform="translate(317.974 10642.5)" fill="#93ad80"/><path d="M13.419,1A12.421,12.421,0,0,0,1.035,12.469a13.073,13.073,0,0,1,2.78-1.6,24.6,24.6,0,0,1,9.6-1.65A24.467,24.467,0,0,1,23.01,10.88,13.1,13.1,0,0,1,25.8,12.493,12.42,12.42,0,0,0,13.419,1m0-1A13.419,13.419,0,0,1,26.838,13.419c0,3.735-.13-3.2-13.419-3.2S0,17.095,0,13.419A13.419,13.419,0,0,1,13.419,0Z" transform="translate(317.974 10642.5)" fill="#fff"/><path d="M19.376-11.194c6.707,0,8.795,1.911,12.175,3.653,1.643.847,1.146-3.119,1.146-3.119s-.989-4.633,2.6-5.025,1.094,5.025,1.874,5.025.491-2.032,2.229-2.032c1.105,0,.072,2.032.942,2.032S41.709-14.1,43.393-14.1c3.325,0-1.485,8.446-7.437,13.85C31.421,3.872,23.888,5.2,19.376,5.2,9.191,5.2,2.255-.406,2.255-2.669S9.191-11.194,19.376-11.194Z" transform="translate(312.632 10666.448)" fill="#809cad"/><circle cx="1.5" cy="1.5" r="1.5" transform="translate(311 10641)" fill="#cb9968"/><circle cx="1.5" cy="1.5" r="1.5" transform="translate(353 10642)" fill="#809cad"/><circle cx="1.75" cy="1.75" r="1.75" transform="translate(315 10633)" fill="#cb9968"/><circle cx="1.75" cy="1.75" r="1.75" transform="translate(348 10636)" fill="#809cad"/><circle cx="1" cy="1" r="1" transform="translate(315 10649)" fill="#cb9968"/><circle cx="1" cy="1" r="1" transform="translate(355 10648)" fill="#809cad"/></g></g></svg>