<svg xmlns="http://www.w3.org/2000/svg" width="403.929" height="580.165" viewBox="0 0 403.929 580.165"><g transform="translate(-207.071 -2751.604)"><path d="M-7276.987,2369.281l41.356-18.4,49.282,9.156,44.85-9.156,77.273,24.472v15.024L-7075.738,2406l8.922,13.825,23.371,20.977-7.3,38.965,9.752,16.01-9.752,22.418,85.531,97.4,73.236,31.7,7.162,19.105-41.011,34.97-3.243,12.676,10.04,5.354-2.894,6.388-12.268,7.972-31.022,121.385-78.229,14.912-54.853,60.987-101.819-112.183v-52.6l-50.7-107.763-10.937-37.4,4.405-25.422-19.642-16.487v-47.24l-8.134-38.868-3.627-52.276,11.761-24.617-11.761-20.107Z" transform="translate(7495.818 400.73)" fill="#8bad78" opacity="0.796"/><path d="M-7212.145,2350.876l49.282,9.156,44.85-9.156,77.272,24.472v15.024L-7052.252,2406l8.922,13.825,23.371,20.977-7.3,38.965,9.752,16.01-9.752,22.418,85.531,97.4,73.235,31.7,7.162,19.105-41.011,34.97-3.243,12.676,10.04,5.354-2.895,6.388-12.267,7.972-20.188,79s-9.28-27.016-23.854-33.708-14.815,8.692-34.438,6.938-20.1-11.032-42.777-14.083c-16.941-2.278-25.707-22.667-35.162-30.941s23.766-7.211-125.923-237.636Z" transform="translate(7472.332 400.73)" fill="#fff" opacity="0.998"/><path d="M-7276.987,2369.279l41.356-18.4s23.291-.325,31.131,5.8c6.075,4.748-3.5,15.375,0,21.122,7.782,12.8,4.512,13.666,0,24.27s-20.183,12.233-18.049,18.148,14.286.367,26.585,5.512,16.958,3.515,22.61,15.068,5.653,21.495,0,31.143-15.919-2.293-22.61,7.45-8.792,23.64-4.153,31.52,10.906-7.125,22.7,0,10.966,11.436,24.488,28.5,14.641,17.732,29.605,39.769,17.447,32.881,30.256,48.38,8.571,8.126,20.976,13.616,26.217-.734,28.642,8.344-11.781,13.188-18.941,27.967-2.032,15.615-9.7,31.15,2.18,33.219-17.388,38.462-24.805-.751-41.78-7.471c-28.775-11.39-22.4-18.632-36.945-24.843s-16.1,4.976-27.764,8.1-16.853,16.463-16.853,16.463l-38-80.858-10.937-37.4,4.405-25.422-19.642-16.486v-47.24l-8.134-38.869-3.627-52.275,11.761-24.617-11.761-20.107Z" transform="translate(7495.818 400.731)" fill="#fae9d2" opacity="0.998"/><text transform="translate(253.586 3000.358)" fill="#5c5854" font-size="21" font-family="mplus-1p-bold, 'M\+ \31 p'" font-weight="700" letter-spacing="0.1em"><tspan x="0" y="0">徳之島町</tspan></text><text transform="translate(484.799 3072.404)" fill="#5c5854" font-size="21" font-family="mplus-1p-bold, 'M\+ \31 p'" font-weight="700" letter-spacing="0.1em"><tspan x="0" y="0">天城町</tspan></text><text transform="translate(366.372 3230.502)" fill="#5c5854" font-size="21" font-family="mplus-1p-bold, 'M\+ \31 p'" font-weight="700" letter-spacing="0.1em"><tspan x="0" y="0">伊仙町</tspan></text></g></svg>