<svg xmlns="http://www.w3.org/2000/svg" width="1364" height="830.322" viewBox="0 0 1364 830.322"><g transform="translate(-260 -2493.115)"><g transform="translate(724.76 2493.115)"><path d="M-7272.4,2376.455l57.479-25.579,68.493,12.725,62.332-12.725,107.4,34.012v20.881l-16,21.714,12.4,19.215,32.481,29.154-10.149,54.155,13.554,22.252-13.554,31.157,118.872,135.366,101.785,44.053,9.953,26.553-57,48.6-4.507,17.617,13.953,7.442-4.022,8.878-17.05,11.079-43.115,168.7-108.723,20.725-76.235,84.76-141.51-155.914v-73.1l-70.46-149.77-15.2-51.984,6.123-35.333-27.3-22.913v-65.655l-11.3-54.02-5.04-72.654,16.345-34.213-16.345-27.945Z" transform="translate(7288.748 -2350.873)" fill="#8bad78" opacity="0.796"/><path d="M-7212.145,2350.876l68.493,12.725,62.333-12.725,107.395,34.012v20.881l-16,21.714,12.4,19.215,32.481,29.154-10.149,54.155,13.554,22.252-13.554,31.157,118.873,135.366,101.783,44.053,9.954,26.553-57,48.6-4.508,17.617,13.954,7.442-4.022,8.878-17.049,11.079-28.059,109.8s-12.9-37.547-33.151-46.848-20.591,12.08-47.863,9.643-27.934-15.333-59.453-19.573c-23.545-3.167-35.728-31.5-48.868-43s33.029-10.021-175.01-330.271Z" transform="translate(7285.967 -2350.873)" fill="#fff" opacity="0.998"/><path d="M-7272.4,2376.455l57.479-25.579s32.37-.452,43.266,8.063c8.443,6.6-4.857,21.369,0,29.356,10.816,17.787,6.271,18.993,0,33.731s-28.05,17-25.084,25.223,19.854.51,36.948,7.661,23.568,4.885,31.424,20.942,7.857,29.874,0,43.282-22.124-3.187-31.424,10.354-12.22,32.855-5.772,43.806,15.157-9.9,31.555,0,15.24,15.893,34.034,39.615,20.348,24.644,41.146,55.271,24.249,45.7,42.051,67.24,11.912,11.293,29.152,18.923,36.437-1.02,39.808,11.6-16.373,18.329-26.325,38.869-2.824,21.7-13.482,43.293,3.03,46.167-24.166,53.455-34.475-1.044-58.066-10.383c-39.992-15.831-31.129-25.9-51.347-34.528s-22.371,6.916-38.586,11.26-23.423,22.88-23.423,22.88l-52.81-112.378-15.2-51.984,6.123-35.333-27.3-22.913v-65.655l-11.3-54.02-5.04-72.653,16.345-34.213-16.345-27.946Z" transform="translate(7288.748 -2350.872)" fill="#fae9d2" opacity="0.998"/><text transform="translate(66.039 346.707)" fill="#5c5854" font-size="30" font-family="mplus-1p-bold, 'M\+ \31 p'" font-weight="700" letter-spacing="0.1em"><tspan x="0" y="0">徳之島町</tspan></text><text transform="translate(385.992 446.837)" fill="#5c5854" font-size="30" font-family="mplus-1p-bold, 'M\+ \31 p'" font-weight="700" letter-spacing="0.1em"><tspan x="0" y="0">天城町</tspan></text><text transform="translate(235.24 667.935)" fill="#5c5854" font-size="30" font-family="mplus-1p-bold, 'M\+ \31 p'" font-weight="700" letter-spacing="0.1em"><tspan x="0" y="0">伊仙町</tspan></text></g><path d="M17.092,147.137l-2.949-.549.732-3.933,2.949.549Zm1.463-7.865-2.949-.549.732-3.933,2.949.549Zm1.463-7.865-2.949-.549.731-3.933,2.949.549Zm1.463-7.865-2.949-.549.732-3.933,2.949.549Zm1.463-7.865-2.949-.549.732-3.933,2.949.549Zm1.463-7.865-2.949-.549.731-3.933,2.949.549Zm1.463-7.865L22.92,99.4l.732-3.933,2.949.549Zm1.463-7.865-2.949-.549.732-3.933,2.949.549ZM28.8,84.216l-2.949-.549.731-3.933,2.949.549Zm1.463-7.865L27.309,75.8l.732-3.933,2.949.549Zm1.463-7.865-2.949-.549L29.5,64l2.949.549Zm1.463-7.865-2.949-.549.732-3.933,2.949.549Zm1.463-7.865L31.7,52.207l.732-3.933,2.949.549Zm1.463-7.865-2.949-.549.732-3.933,2.949.549Zm1.463-7.865-2.949-.549.731-3.933,2.949.549Zm1.463-7.865-2.949-.549.731-3.933,2.949.549ZM40.5,21.3l-2.949-.549.732-3.933,2.949.549Zm1.463-7.865-2.949-.549.731-3.933,2.949.549Zm1.463-7.865-2.949-.549.731-3.933,2.949.549ZM44.889-2.3l-2.949-.549.731-3.933,2.949.549Zm1.463-7.865L43.4-10.714l.732-3.933,2.949.549Zm1.463-7.865-2.949-.549.731-3.933,2.949.549ZM49.277-25.9l-2.949-.549.731-3.933,2.949.549ZM50.74-33.76l-2.949-.549.732-3.933,2.949.549ZM52.2-41.626l-2.949-.549.731-3.933,2.949.549Zm1.463-7.865-2.949-.549.731-3.933,2.949.549Zm1.463-7.865L52.18-57.9l.732-3.933,2.949.549Zm1.463-7.865-2.949-.549.731-3.933,2.949.549Zm1.463-7.865-2.949-.549.731-3.933,2.949.549Zm1.463-7.865L56.569-81.5l.731-3.933,2.949.549Zm1.463-7.865-2.949-.549.732-3.933,2.949.549Zm1.463-7.865-2.949-.549.731-3.933,2.949.549Zm1.463-7.865-2.949-.549.731-3.933,2.949.549Zm1.463-7.865-2.949-.549.732-3.933,2.949.549Zm1.463-7.865-2.949-.549.732-3.933,2.949.549Zm1.463-7.865-2.949-.549.731-3.933,2.949.549Zm1.463-7.865-2.949-.549.731-3.933,2.949.549Zm1.463-7.865-2.949-.549L69-148.353l2.949.549Zm1.463-7.865-2.949-.549.732-3.933,2.949.549Zm1.463-7.865-2.949-.549.731-3.933,2.949.549Zm1.463-7.865-2.949-.549.731-3.933,2.949.549Zm1.463-7.865-2.949-.549.731-3.933,2.949.549Zm1.463-7.865-2.949-.549.5-2.7h3.746v3H78.584ZM279-183.447h-3.165v-3H279Zm-7.165,0h-4v-3h4Zm-8,0h-4v-3h4Zm-8,0h-4v-3h4Zm-8,0h-4v-3h4Zm-8,0h-4v-3h4Zm-8,0h-4v-3h4Zm-8,0h-4v-3h4Zm-8,0h-4v-3h4Zm-8,0h-4v-3h4Zm-8,0h-4v-3h4Zm-8,0h-4v-3h4Zm-8,0h-4v-3h4Zm-8,0h-4v-3h4Zm-8,0h-4v-3h4Zm-8,0h-4v-3h4Zm-8,0h-4v-3h4Zm-8,0h-4v-3h4Zm-8,0h-4v-3h4Zm-8,0h-4v-3h4Zm-8,0h-4v-3h4Zm-8,0h-4v-3h4Zm-8,0h-4v-3h4Zm-8,0h-4v-3h4Zm-8,0h-4v-3h4Z" transform="translate(1132.5 2742.979)" fill="rgba(112,112,112,0.69)"/><path d="M294.452,143.668l-1.889-3.526,2.644-1.417,1.889,3.526Zm-3.779-7.051-1.889-3.526,2.644-1.417,1.889,3.526Zm-3.779-7.051-1.889-3.526,2.644-1.417,1.889,3.526Zm-3.779-7.051-1.889-3.526,2.644-1.417,1.889,3.526Zm-3.779-7.051-1.889-3.526,2.644-1.417,1.889,3.526Zm-3.779-7.051-1.889-3.526,2.644-1.417,1.889,3.526Zm-3.779-7.051-1.889-3.526,2.644-1.417,1.889,3.526ZM268,94.309l-1.889-3.526,2.644-1.417,1.889,3.526Zm-3.779-7.051-1.889-3.526,2.644-1.417,1.889,3.526Zm-3.779-7.051-1.889-3.526,2.644-1.417,1.889,3.526Zm-3.779-7.051-1.889-3.526,2.644-1.417,1.889,3.526ZM252.885,66.1,251,62.579l2.644-1.417,1.889,3.526Zm-3.779-7.051-1.889-3.526,2.644-1.417,1.889,3.526ZM245.328,52l-1.889-3.526,2.644-1.417,1.889,3.526Zm-3.779-7.051-1.889-3.526,2.644-1.417,1.889,3.526ZM237.77,37.9l-1.889-3.526,2.644-1.417,1.889,3.526Zm-3.779-7.051L232.1,27.322l2.644-1.417,1.889,3.526ZM230.213,23.8l-1.889-3.526,2.644-1.417,1.889,3.526Zm-3.779-7.051-1.889-3.526,2.644-1.417,1.889,3.526Zm-3.779-7.051-1.889-3.526,2.644-1.417L225.3,8.277Zm-3.779-7.051L216.987-.883,219.631-2.3l1.889,3.526ZM214.318-.106h-4v-3h4Zm-8,0h-4v-3h4Zm-8,0h-4v-3h4Zm-8,0h-4v-3h4Zm-8,0h-4v-3h4Zm-8,0h-4v-3h4Zm-8,0h-4v-3h4Zm-8,0h-4v-3h4Zm-8,0h-4v-3h4Zm-8,0h-4v-3h4Zm-8,0h-4v-3h4Zm-8,0h-4v-3h4Zm-8,0h-4v-3h4Zm-8,0h-4v-3h4Zm-8,0h-4v-3h4Zm-8,0h-4v-3h4Zm-8,0h-4v-3h4Zm-8,0h-4v-3h4Zm-8,0h-4v-3h4Zm-8,0h-4v-3h4Zm-8,0h-4v-3h4Zm-8,0h-4v-3h4Zm-8,0h-4v-3h4Zm-8,0h-4v-3h4Zm-8,0h-.671v-3h.671Z" transform="translate(546.035 2649.688)" fill="rgba(112,112,112,0.69)"/><path d="M278.842,110.889l-3.289-2.277,1.708-2.466,3.289,2.277Zm-6.577-4.554-3.289-2.277,1.708-2.466,3.289,2.277Zm-6.577-4.554L262.4,99.5l1.708-2.466,3.289,2.277Zm-6.577-4.554-3.289-2.277,1.708-2.466,3.289,2.277Zm-6.577-4.554L249.244,90.4l1.708-2.466,3.289,2.277Zm-6.577-4.554-3.289-2.277,1.708-2.466,3.289,2.277Zm-6.577-4.554-3.289-2.277,1.708-2.466,3.289,2.277ZM232.8,79.01l-3.289-2.277,1.708-2.466,3.289,2.277Zm-6.577-4.554-3-2.076.5-.724V69.646h.821l3.384,2.343Zm-6.5-1.81h-4v-3h4Zm-8,0h-4v-3h4Zm-8,0h-4v-3h4Zm-8,0h-4v-3h4Zm-8,0h-4v-3h4Zm-8,0h-4v-3h4Zm-8,0h-4v-3h4Zm-8,0h-4v-3h4Zm-8,0h-4v-3h4Zm-8,0h-4v-3h4Zm-8,0h-4v-3h4Zm-8,0h-4v-3h4Zm-8,0h-4v-3h4Zm-8,0h-4v-3h4Zm-8,0h-4v-3h4Zm-8,0h-4v-3h4Zm-8,0h-4v-3h4Zm-8,0h-4v-3h4Zm-8,0h-4v-3h4Zm-8,0h-4v-3h4Zm-8,0h-4v-3h4Zm-8,0h-4v-3h4Zm-8,0h-4v-3h4Zm-8,0h-4v-3h4Zm-8,0h-4v-3h4Zm-8,0h-4v-3h4Zm-8,0h-4v-3h4Zm-8,0h-4v-3h4Z" transform="translate(653.035 3039.103)" fill="rgba(112,112,112,0.69)"/><rect width="360" height="240" transform="translate(1256 2508.911)" fill="#fff"/><text transform="translate(1264 2765.385)" fill="#5c5854" font-size="16.5" font-family="mplus-1p-regular, 'M\+ \31 p'" letter-spacing="0.15em"><tspan x="0" y="18">ここに</tspan><tspan y="18">天城町</tspan><tspan y="18">の</tspan><tspan y="18">観光</tspan><tspan y="18">スポットなどの</tspan><tspan y="18">情報</tspan><tspan x="0" y="42">を</tspan><tspan y="42">掲載</tspan><tspan y="42">ここに</tspan><tspan y="42">天城町</tspan><tspan y="42">の</tspan><tspan y="42">観光</tspan><tspan y="42">スポットなど</tspan><tspan x="0" y="66">の</tspan><tspan y="66">情報</tspan><tspan y="66">を</tspan><tspan y="66">掲載</tspan></text><rect width="360" height="240" transform="translate(260 2575.854)" fill="#fff"/><text transform="translate(267 2832.276)" fill="#5c5854" font-size="16.5" font-family="mplus-1p-regular, 'M\+ \31 p'" letter-spacing="0.15em"><tspan x="0" y="18">ここに</tspan><tspan y="18">徳之島町</tspan><tspan y="18">の</tspan><tspan y="18">観光</tspan><tspan y="18">スポットなどの</tspan><tspan y="18">情</tspan><tspan x="0" y="42">報</tspan><tspan y="42">を</tspan><tspan y="42">掲載</tspan><tspan y="42">ここに</tspan><tspan y="42">徳之島町</tspan><tspan y="42">の</tspan><tspan y="42">観光</tspan><tspan y="42">スポット</tspan><tspan x="0" y="66">などの</tspan><tspan y="66">情報</tspan><tspan y="66">を</tspan><tspan y="66">掲載</tspan></text><rect width="360" height="240" transform="translate(379.06 2996.016)" fill="#fff"/><text transform="translate(388.035 3252.438)" fill="#5c5854" font-size="16.5" font-family="mplus-1p-regular, 'M\+ \31 p'" letter-spacing="0.15em"><tspan x="0" y="18">ここに</tspan><tspan y="18">伊仙町</tspan><tspan y="18">の</tspan><tspan y="18">観光</tspan><tspan y="18">スポットなどの</tspan><tspan y="18">情報</tspan><tspan x="0" y="42">を</tspan><tspan y="42">掲載</tspan><tspan y="42">ここに</tspan><tspan y="42">伊仙町</tspan><tspan y="42">の</tspan><tspan y="42">観光</tspan><tspan y="42">スポットなど</tspan><tspan x="0" y="66">の</tspan><tspan y="66">情報</tspan><tspan y="66">を</tspan><tspan y="66">掲載</tspan></text><g transform="matrix(0.966, 0.259, -0.259, 0.966, 751.627, -123.094)"><circle cx="6" cy="6" r="6" transform="translate(835.81 2771.147)" fill="#5c5854"/><path d="M0,13.5A1.5,1.5,0,0,1-1.5,12V0A1.5,1.5,0,0,1,0-1.5,1.5,1.5,0,0,1,1.5,0V12A1.5,1.5,0,0,1,0,13.5Z" transform="translate(841.619 2780.147)" fill="#5c5854"/></g><g transform="matrix(0.966, 0.259, -0.259, 0.966, 841.627, 233.321)"><circle cx="6" cy="6" r="6" transform="translate(835.81 2771.147)" fill="#5c5854"/><path d="M0,13.5A1.5,1.5,0,0,1-1.5,12V0A1.5,1.5,0,0,1,0-1.5,1.5,1.5,0,0,1,1.5,0V12A1.5,1.5,0,0,1,0,13.5Z" transform="translate(841.619 2780.147)" fill="#5c5854"/></g><g transform="matrix(0.914, -0.407, 0.407, 0.914, -758.996, 685.869)"><circle cx="6" cy="6" r="6" transform="translate(835.81 2771.147)" fill="#5c5854"/><path d="M0,13.5A1.5,1.5,0,0,1-1.5,12V0A1.5,1.5,0,0,1,0-1.5,1.5,1.5,0,0,1,1.5,0V12A1.5,1.5,0,0,1,0,13.5Z" transform="translate(841.619 2780.147)" fill="#5c5854"/></g></g></svg>