<svg xmlns="http://www.w3.org/2000/svg" preserveAspectRatio="none" width="1980" height="80" viewBox="0 0 1980 80"><path d="M-1.739-26.038c75.648,0,60.639-25.368,122.592-25.368S183.7-26.038,246.072-26.038s62.1-25.368,124.265-25.368,62.154,25.368,124.4,25.368S557.6-51.406,619.325-51.406,680.8-26.038,741.618-26.038s59.021-25.368,120.961-25.368,64.132,25.368,126.8,25.368,62.39-25.368,123.863-25.368,61.385,25.368,122.029,25.368,58.937-25.368,120.548-25.368,63.275,25.368,125.9,25.368,62.566-25.368,124.586-25.368,62.332,25.368,123.495,25.368,59.038-25.368,121.155-25.368,54.561,25.368,127.312,25.368V28.594h-1980Z" transform="translate(1.739 51.405)" fill="#f0f9ff"/></svg>